<svg width="257" height="379" viewBox="0 0 257 379" fill="none" xmlns="http://www.w3.org/2000/svg">
<path d="M234.833 365.449L235.462 371.599L223.789 379L217.013 373.479L222.539 366.7L234.212 359.299L234.833 365.449Z" fill="#14263A"/>
<path d="M235.29 177.813L237.184 196.487L220.51 279.972L235.275 363.404L223.333 367.082L184.698 267.882L182.579 237.559L187.813 174.742L235.29 177.813Z" fill="#145566"/>
<path d="M144.738 184.165L144.356 263.088L159.9 364.738L171.333 364.663L177.922 270.728L192.934 176.742L144.738 184.165Z" fill="#145566"/>
<path d="M171.296 369.479L158.979 375.749L152.757 369.607L158.897 363.382L171.258 363.299L171.296 369.479Z" fill="#14263A"/>
<path d="M135.109 172.584C143.345 147.033 144.229 120.201 146.632 93.5791C147.381 85.7287 148.13 77.6986 151.364 70.5225C155.108 62.2826 161.322 57.938 168.548 55.5409C177.742 52.5446 188.599 52.6869 198.168 52.1027C207.235 51.818 215.269 85.946 224.523 102.493C230.199 112.628 236.039 121.595 239.865 132.658C243.541 143.273 247.068 154.075 249.201 165.116C252.429 181.79 260.68 193.431 252.803 199.109C252.054 199.349 251.38 199.581 250.721 199.821C237.804 204.523 224.424 207.838 210.806 209.709C198.711 211.334 186.469 211.565 174.32 210.398C157.721 208.757 141.631 206.413 126.993 197.753C129.698 189.359 132.404 180.969 135.109 172.584Z" fill="#D1E7F5"/>
<path d="M78.1755 120.89L135.079 103.886L154.389 65.3538L165.044 85.062L152.757 120.89L90.4772 133.228L78.1755 120.89Z" fill="#D1E7F5"/>
<path d="M165.036 207.955L205.494 167.55L56.2864 18.0134L15.8287 58.419L165.036 207.955Z" fill="#EBB044"/>
<path d="M56.2899 18.0121L0 2.07172L15.8358 58.4173L56.2899 18.0121Z" fill="#EDEEEF"/>
<path d="M21.1218 8.05685L0 2.07172L5.93746 23.2107L21.1218 8.05685Z" fill="#145566"/>
<path d="M190.561 222.765L220.6 192.802C221.978 191.419 222.752 189.545 222.752 187.592C222.752 185.639 221.978 183.765 220.6 182.382L205.49 167.55L165.059 207.956L180.168 222.757C181.547 224.134 183.415 224.908 185.363 224.91C187.311 224.911 189.18 224.14 190.561 222.765Z" fill="white"/>
<path d="M165.044 207.956L205.498 167.55L197.943 159.985L157.174 200.068L165.044 207.956Z" fill="#EDEDEF"/>
<path d="M202.6 26.7239C197.434 11.1131 174.657 5.67482 169.364 23.8175C167.769 29.2707 166.811 35.0536 167.866 40.6342C168.922 46.2149 172.359 51.5633 177.555 53.848L177.645 53.8854C177.443 55.3312 177.233 56.7844 177.031 58.2301C176.966 58.3894 176.945 58.5629 176.968 58.7332C176.992 58.9035 177.06 59.0646 177.165 59.2004C177.271 59.3362 177.41 59.4418 177.569 59.5069C177.728 59.5719 177.901 59.594 178.072 59.5709L183.253 60.32C184.1 60.5149 184.981 60.5149 185.829 60.32C187.633 59.7432 188.382 57.5784 188.464 55.6832C188.464 55.2338 188.464 54.7693 188.464 54.3124C198.752 50.8292 205.985 36.9338 202.6 26.7239Z" fill="#EAC1A4"/>
<path d="M174.852 0.0642216C170.682 -0.557513 167.133 3.4875 163.284 5.61488C160.087 7.3827 156.456 7.86211 153.139 9.31532C149.822 10.7685 146.557 13.8098 146.49 17.66C143.128 15.9147 139.482 14.1169 135.716 14.8435C131.95 15.5701 128.453 20.087 129.95 23.78C131.298 27.0984 135.626 27.885 137.071 31.1509C139.317 36.3271 133.185 44.3572 137.393 47.7879C138.404 48.6119 139.774 48.8142 140.77 49.6606C142.005 50.7168 142.402 52.5296 142.948 54.1551C145.442 61.4511 152.794 66.2152 160.057 65.2414C164.549 63.129 168.173 58.7544 169.791 53.7431C171.737 47.7505 168.51 45.6006 167.964 39.9376C167.393 33.631 169.269 27.3464 173.205 22.3867C175.736 19.2556 179.367 16.5589 183.2 16.1919C184.758 16.042 184.264 17.3454 186.023 16.1394C186.772 15.6226 187.798 13.66 188.015 12.7236C183.852 9.3303 180.34 0.880716 174.852 0.0642216Z" fill="#1A3151"/>
<path d="M219.963 8.08685C222.112 8.68611 224.456 8.60371 226.5 9.5026C229.577 10.8509 229.39 14.0495 230.244 16.8286C231.209 19.8998 232.617 24.0272 234.639 26.4168C236.099 28.1396 238.143 29.1209 239.925 30.4543C241.707 31.7877 243.339 33.7427 243.301 36.1398C243.301 38.387 241.737 40.4545 241.519 42.7167C241.242 46.1025 241.826 47.8329 240.771 51.2861C240.232 53.0689 239.633 54.9641 238.292 56.1776C236.533 57.7806 234.025 57.7507 231.816 57.3761C229.607 57.0016 227.323 56.4023 225.16 57.1289C220.443 58.717 221.319 63.4886 220.068 67.4887C218.151 73.5787 211.083 77.1293 205.707 74.9795C201.133 73.1442 198.482 67.8258 198.684 62.5822C198.789 59.953 199.837 57.5035 199.912 54.8742C199.987 52.2449 198.557 48.8292 200.856 46.8141C201.473 46.4163 202.066 45.981 202.63 45.5108C203.013 45.0266 203.27 44.4554 203.379 43.8478C203.624 42.8212 203.643 41.7536 203.434 40.7189C203.226 39.6843 202.796 38.7072 202.173 37.8552C201.282 36.7016 200.01 35.8551 199.463 34.4694C198.842 32.8738 199.336 31.0086 199.463 29.2258C199.718 24.9636 197.389 20.7912 193.848 19.1432C191.511 18.0571 189.4 17.4204 187.363 15.7724C187.049 15.5177 182.399 11.4128 182.28 12.2967C182.603 10.7714 183.3 9.35039 184.309 8.16176C185.806 6.12427 187.476 4.13922 189.595 2.91822C196.431 -1.02942 196.76 8.16176 202.256 6.94076C203.574 6.64862 204.577 5.44261 205.767 4.69353C208.014 3.32272 210.784 3.80962 213.09 4.83586C215.396 5.86209 217.537 7.41268 219.963 8.08685Z" fill="#1A3151"/>
<path d="M76.3485 128.905L83.0871 127.467L91.5403 133.939L85.1536 141.393L78.7669 136.172L76.3485 128.905Z" fill="#EAC1A4"/>
<path d="M150.601 150.509L146.071 155.355L133.597 157.513L132.96 150.539L141.593 146.314L142.125 142.576L146.924 141.932L150.601 150.509Z" fill="#EAC1A4"/>
<path d="M138.883 141.67L195.787 124.658L215.104 86.1332L225.751 105.841L213.472 141.67L151.192 154.007L138.883 141.67Z" fill="#D1E7F5"/>
</svg>
